<svg width="21" height="21" viewBox="0 0 21 21" fill="none" xmlns="http://www.w3.org/2000/svg">
<path d="M17.4362 20.1283H1.11295C0.817777 20.1283 0.534694 20.011 0.325975 19.8023C0.117257 19.5936 0 19.3105 0 19.0153V2.69205C0 2.39687 0.117257 2.11379 0.325975 1.90507C0.534694 1.69635 0.817777 1.5791 1.11295 1.5791H9.27458C9.56975 1.5791 9.85284 1.69635 10.0616 1.90507C10.2703 2.11379 10.3875 2.39687 10.3875 2.69205C10.3875 2.98722 10.2703 3.2703 10.0616 3.47902C9.85284 3.68774 9.56975 3.805 9.27458 3.805H2.2259V17.9024H16.3233V10.8537C16.3233 10.5585 16.4405 10.2754 16.6492 10.0667C16.858 9.85798 17.141 9.74073 17.4362 9.74073C17.7314 9.74073 18.0145 9.85798 18.2232 10.0667C18.4319 10.2754 18.5492 10.5585 18.5492 10.8537V19.0153C18.5492 19.3105 18.4319 19.5936 18.2232 19.8023C18.0145 20.011 17.7314 20.1283 17.4362 20.1283ZM7.18965 14.1925L10.4246 13.777C10.668 13.7461 10.8946 13.6367 11.0701 13.4654L19.1205 5.40022C19.4297 5.11665 19.6784 4.77341 19.8515 4.39118C20.0245 4.00895 20.1184 3.59564 20.1275 3.17615C20.1366 2.75665 20.0607 2.33967 19.9043 1.9503C19.748 1.56094 19.5144 1.20725 19.2177 0.910558C18.921 0.613864 18.5673 0.380299 18.178 0.223935C17.7886 0.0675716 17.3716 -0.00835533 16.9521 0.000728723C16.5326 0.00981278 16.1193 0.10372 15.7371 0.276793C15.3548 0.449865 15.0116 0.698522 14.728 1.00778L6.67028 9.05812C6.49897 9.23367 6.38957 9.4603 6.35865 9.70363L5.94315 12.9386C5.92311 13.0955 5.93676 13.2549 5.98317 13.4061C6.02958 13.5574 6.1077 13.6969 6.21232 13.8156C6.31693 13.9343 6.44564 14.0293 6.58986 14.0942C6.73408 14.1592 6.89049 14.1927 7.04868 14.1925H7.18965ZM16.301 2.61785C16.4683 2.45645 16.6918 2.36626 16.9243 2.36626C17.1567 2.36626 17.3802 2.45645 17.5475 2.61785C17.6301 2.6993 17.6956 2.79633 17.7404 2.90333C17.7851 3.01032 17.8081 3.12513 17.8081 3.2411C17.8081 3.35707 17.7851 3.47188 17.7404 3.57888C17.6956 3.68587 17.6301 3.78291 17.5475 3.86435L9.76428 11.5956L8.33228 11.7811L8.53261 10.364L16.301 2.61785Z" fill="#2D3038" fill-opacity="0.5"/>
</svg>
