<svg width="20" height="17" viewBox="0 0 20 17" fill="none" xmlns="http://www.w3.org/2000/svg">
<path d="M15.2389 0.00129169C15.0126 0.0118799 14.7908 0.0944617 14.5956 0.240226C14.0752 0.62905 13.9676 1.35577 14.3566 1.876L16.4706 4.70642H1.17647C0.526706 4.70642 2.18052e-07 5.23318 2.18052e-07 5.88271C2.18052e-07 6.53224 0.526706 7.059 1.17647 7.059H18.8235C19.4733 7.059 20 6.53224 20 5.88271C20.0002 5.51101 19.81 5.31488 19.6507 5.05565L16.25 0.479197C16.0068 0.153962 15.6162 -0.0167083 15.2389 0.00129169ZM1.17647 9.41158C0.526706 9.41158 2.18052e-07 9.93829 2.18052e-07 10.5879C-0.000235076 10.9596 0.19 11.1557 0.349294 11.4149L3.75 15.9914C3.99318 16.3166 4.38376 16.4873 4.76106 16.4693C4.98735 16.4587 5.20924 16.3762 5.40441 16.2304C5.92482 15.8416 6.03235 15.1148 5.64341 14.5946L3.52941 11.7642H18.8235C19.4733 11.7642 20 11.2374 20 10.5879C20 9.93829 19.4733 9.41158 18.8235 9.41158H1.17647Z" fill="#8DC63F"/>
</svg>
