<svg width="26" height="23" viewBox="0 0 26 23" fill="none" xmlns="http://www.w3.org/2000/svg">
<path fill-rule="evenodd" clip-rule="evenodd" d="M13.2282 22.9683H2.94768C1.31958 22.9683 0 21.6154 0 19.9473V3.04663C0 1.37856 1.31958 0.0256784 2.94768 0.0256784H13.2803C13.3623 0.0135946 13.4444 0 13.5298 0C14.5173 0 15.3181 0.820691 15.3181 1.83271C15.3181 2.84473 14.5173 3.66542 13.5298 3.66542C13.4444 3.66542 13.3623 3.65182 13.2803 3.63974H10.6318C10.6195 3.63974 10.6077 3.63622 10.5949 3.63622H4.7099C4.05895 3.63622 3.53083 4.17697 3.53083 4.8446V18.1524C3.53083 18.82 4.05895 19.3613 4.7099 19.3613H10.5949C10.6357 19.3613 10.674 19.3527 10.7138 19.3492H13.3923C13.4385 19.3452 13.4832 19.3346 13.5298 19.3346C14.5173 19.3346 15.3181 20.1553 15.3181 21.1673C15.3181 22.1793 14.5173 23 13.5298 23C13.4267 22.9995 13.3269 22.9854 13.2282 22.9683ZM19.8541 9.72494L18.1076 7.90834C17.5294 7.31573 17.5294 6.35507 18.1076 5.76246L18.5247 5.335C19.1029 4.74239 20.0408 4.74239 20.619 5.335L25.3102 10.1972L25.5662 10.4595C25.8556 10.7561 26 11.1448 26 11.534C26 11.9232 25.8561 12.3114 25.5662 12.6084L25.3746 12.8048L20.619 17.7516C20.0408 18.3442 19.1029 18.3442 18.5247 17.7516L18.1076 17.3241C17.5294 16.7315 17.5294 15.7704 18.1076 15.1778L19.8669 13.339H10.9118C10.1007 13.339 9.44338 12.6653 9.44338 11.8341V11.2299C9.44338 10.3986 10.1007 9.72494 10.9118 9.72494H19.8541Z" fill="#2D3038" fill-opacity="0.5"/>
</svg>
