<svg width="17" height="18" viewBox="0 0 17 18" fill="none" xmlns="http://www.w3.org/2000/svg">
<path fill-rule="evenodd" clip-rule="evenodd" d="M11.7206 6.07278H14.1667V7.96167H8.5V2.295H10.3889V4.74111L15.13 0L16.4617 1.33167L11.7206 6.07278ZM12.6839 11.6828C13.7417 12.0322 14.8844 12.2211 16.0556 12.2211C16.575 12.2211 17 12.6461 17 13.1655V16.4617C17 16.9811 16.575 17.4061 16.0556 17.4061C7.18722 17.4061 0 10.2189 0 1.35055C0 0.831104 0.425 0.406104 0.944444 0.406104H4.25C4.76944 0.406104 5.19444 0.831104 5.19444 1.35055C5.19444 2.5311 5.38333 3.66444 5.73278 4.72222C5.83667 5.05277 5.76111 5.4211 5.49667 5.68555L3.41889 7.76333C4.77889 10.4361 6.97 12.6178 9.64278 13.9872L11.7206 11.9094C11.9094 11.73 12.1456 11.6355 12.3911 11.6355C12.4856 11.6355 12.5894 11.645 12.6839 11.6828ZM3.33369 2.29499H1.91702C2.00202 3.54166 2.24758 4.7411 2.6348 5.87444L3.76813 4.7411C3.54146 3.95722 3.3998 3.13555 3.33369 2.29499ZM15.1113 15.4889L15.1019 15.4883V14.0817C14.2707 14.025 13.4491 13.8834 12.6463 13.6567L11.5224 14.7806C12.6623 15.1574 13.8586 15.4027 15.1019 15.4883V15.4889H15.1113Z" fill="#2D3038"/>
</svg>
