<svg width="19" height="19" viewBox="0 0 19 19" fill="none" xmlns="http://www.w3.org/2000/svg">
<path d="M16.625 7.125V2.8667C16.625 2.55164 16.4999 2.24994 16.2773 2.02691L14.5977 0.347715C14.3751 0.125059 14.073 0 13.7579 0H3.5625C2.90678 0 2.375 0.531777 2.375 1.1875V7.125C1.06318 7.125 0 8.18818 0 9.5V13.6562C0 13.9843 0.265703 14.25 0.59375 14.25H2.375V17.8125C2.375 18.4682 2.90678 19 3.5625 19H15.4375C16.0932 19 16.625 18.4682 16.625 17.8125V14.25H18.4062C18.7343 14.25 19 13.9843 19 13.6562V9.5C19 8.18818 17.9368 7.125 16.625 7.125ZM14.25 16.625H4.75V13.0625H14.25V16.625ZM14.25 8.3125H4.75V2.375H11.875V4.15625C11.875 4.4843 12.1407 4.75 12.4688 4.75H14.25V8.3125ZM16.0312 10.9844C15.5396 10.9844 15.1406 10.5854 15.1406 10.0938C15.1406 9.60168 15.5396 9.20312 16.0312 9.20312C16.5229 9.20312 16.9219 9.60168 16.9219 10.0938C16.9219 10.5854 16.5229 10.9844 16.0312 10.9844Z" fill="#2D3038"/>
</svg>
