<svg width="19" height="19" viewBox="0 0 19 19" fill="none" xmlns="http://www.w3.org/2000/svg">
<path d="M16.375 7.375V7.125V2.8667C16.375 2.61809 16.2764 2.37995 16.1005 2.20371L16.375 7.375ZM16.375 7.375H16.625C17.7987 7.375 18.75 8.32625 18.75 9.5V13.6562C18.75 13.8462 18.5962 14 18.4062 14H16.625H16.375V14.25V17.8125C16.375 18.3302 15.9552 18.75 15.4375 18.75H3.5625C3.04485 18.75 2.625 18.3302 2.625 17.8125V14.25V14H2.375H0.59375C0.403774 14 0.25 13.8462 0.25 13.6562V9.5C0.25 8.32625 1.20125 7.375 2.375 7.375H2.625V7.125V1.1875C2.625 0.669849 3.04485 0.25 3.5625 0.25H13.7579C14.0067 0.25 14.2452 0.348757 14.4209 0.524492L14.421 0.524511L16.1004 2.20354L16.375 7.375ZM14.25 16.875H14.5V16.625V13.0625V12.8125H14.25H4.75H4.5V13.0625V16.625V16.875H4.75H14.25ZM14.25 8.5625H14.5V8.3125V4.75V4.5H14.25H12.4688C12.2788 4.5 12.125 4.34623 12.125 4.15625V2.375V2.125H11.875H4.75H4.5V2.375V8.3125V8.5625H4.75H14.25ZM14.8906 10.0938C14.8906 10.7235 15.4015 11.2344 16.0312 11.2344C16.661 11.2344 17.1719 10.7235 17.1719 10.0938C17.1719 9.46354 16.661 8.95312 16.0312 8.95312C15.4015 8.95312 14.8906 9.46354 14.8906 10.0938Z" fill="white" stroke="black" stroke-width="0.5"/>
</svg>
