<svg width="18" height="20" viewBox="0 0 18 20" fill="none" xmlns="http://www.w3.org/2000/svg">
<path d="M5.67636 15.1457C5.85799 15.1458 6.03232 15.0743 6.16165 14.9468C6.29097 14.8192 6.3649 14.6459 6.36743 14.4643V8.91324C6.36743 8.72996 6.29462 8.55418 6.16502 8.42458C6.03542 8.29498 5.85965 8.22217 5.67636 8.22217C5.49308 8.22217 5.3173 8.29498 5.1877 8.42458C5.0581 8.55418 4.98529 8.72996 4.98529 8.91324V14.4643C4.98782 14.6459 5.06175 14.8192 5.19108 14.9468C5.32041 15.0743 5.49474 15.1458 5.67636 15.1457Z" fill="#EB5454"/>
<path d="M8.99988 15.1457C9.1815 15.1458 9.35584 15.0743 9.48516 14.9468C9.61449 14.8192 9.68842 14.6459 9.69095 14.4643V8.91324C9.69095 8.72996 9.61814 8.55418 9.48854 8.42458C9.35894 8.29498 9.18316 8.22217 8.99988 8.22217C8.8166 8.22217 8.64082 8.29498 8.51122 8.42458C8.38162 8.55418 8.30881 8.72996 8.30881 8.91324V14.4643C8.31134 14.6459 8.38527 14.8192 8.5146 14.9468C8.64392 15.0743 8.81825 15.1458 8.99988 15.1457Z" fill="#EB5454"/>
<path d="M12.3237 15.1457C12.5053 15.1458 12.6797 15.0743 12.809 14.9468C12.9383 14.8192 13.0122 14.6459 13.0148 14.4643V8.91324C13.0148 8.72996 12.942 8.55418 12.8124 8.42458C12.6828 8.29498 12.507 8.22217 12.3237 8.22217C12.1404 8.22217 11.9646 8.29498 11.835 8.42458C11.7054 8.55418 11.6326 8.72996 11.6326 8.91324V14.4643C11.6352 14.6459 11.7091 14.8192 11.8384 14.9468C11.9677 15.0743 12.1421 15.1458 12.3237 15.1457Z" fill="#EB5454"/>
<path d="M17.3089 3.34607H12.8861L12.3171 1.44C12.1911 1.02578 11.936 0.662672 11.5891 0.403631C11.2421 0.144589 10.8215 0.0031701 10.3886 0L7.61464 0C7.18168 0.0031701 6.76106 0.144589 6.41413 0.403631C6.0672 0.662672 5.81211 1.02578 5.68607 1.44L5.11714 3.34607H0.691071C0.507788 3.34607 0.332011 3.41888 0.20241 3.54848C0.0728091 3.67808 0 3.85386 0 4.03714C0 4.22043 0.0728091 4.3962 0.20241 4.5258C0.332011 4.65541 0.507788 4.72821 0.691071 4.72821H1.51393V18.0321C1.51732 18.5357 1.71953 19.0176 2.07653 19.3728C2.43353 19.728 2.9164 19.9277 3.42 19.9286H14.6025C15.1078 19.9277 15.5921 19.7266 15.9494 19.3694C16.3066 19.0121 16.5077 18.5278 16.5086 18.0225V4.70571H17.3089C17.4922 4.70571 17.668 4.63291 17.7976 4.5033C17.9272 4.3737 18 4.19793 18 4.01464C17.9996 3.92505 17.9813 3.83643 17.9461 3.75402C17.911 3.67161 17.8597 3.59706 17.7953 3.53476C17.7309 3.47246 17.6547 3.42368 17.5712 3.39127C17.4877 3.35887 17.3985 3.3435 17.3089 3.34607ZM7.02321 1.83536C7.06252 1.70775 7.14059 1.59554 7.24657 1.51433C7.35256 1.43311 7.4812 1.38691 7.61464 1.38214H10.4079C10.5444 1.38099 10.6775 1.42517 10.7863 1.50777C10.8951 1.59036 10.9734 1.70671 11.0089 1.83857L11.4525 3.34607H6.54429L7.02321 1.83536ZM15.1264 18.1736H15.0782C15.0422 18.2769 14.9755 18.3667 14.8871 18.431C14.7986 18.4954 14.6926 18.5311 14.5832 18.5336H3.42C3.27987 18.5311 3.14628 18.4738 3.04778 18.3741C2.94927 18.2744 2.89367 18.1402 2.89286 18V4.70571H15.1264V18.1736Z" fill="#EB5454"/>
</svg>
