<svg width="42" height="42" viewBox="0 0 42 42" fill="none" xmlns="http://www.w3.org/2000/svg">
<path fill-rule="evenodd" clip-rule="evenodd" d="M20.7983 0C9.31765 0 0 9.31765 0 20.7983C0 32.279 9.31765 41.5966 20.7983 41.5966C32.279 41.5966 41.5966 32.279 41.5966 20.7983C41.5966 9.31765 32.279 0 20.7983 0ZM10.5447 33.8597C11.4391 31.9878 16.8882 30.1576 20.7983 30.1576C24.7084 30.1576 30.1784 31.9878 31.0519 33.8597C28.2233 36.1059 24.6668 37.437 20.7983 37.437C16.9298 37.437 13.3733 36.1059 10.5447 33.8597ZM20.7983 25.9979C23.8349 25.9979 31.0519 27.225 34.0261 30.8439C36.1475 28.0569 37.437 24.5836 37.437 20.7983C37.437 11.6263 29.9704 4.15966 20.7983 4.15966C11.6263 4.15966 4.15966 11.6263 4.15966 20.7983C4.15966 24.5836 5.44916 28.0569 7.57059 30.8439C10.5447 27.225 17.7618 25.9979 20.7983 25.9979ZM20.7983 8.31933C16.7634 8.31933 13.5189 11.5639 13.5189 15.5987C13.5189 19.6336 16.7634 22.8782 20.7983 22.8782C24.8332 22.8782 28.0777 19.6336 28.0777 15.5987C28.0777 11.5639 24.8332 8.31933 20.7983 8.31933ZM17.6786 15.5987C17.6786 17.325 19.0721 18.7185 20.7983 18.7185C22.5246 18.7185 23.9181 17.325 23.9181 15.5987C23.9181 13.8725 22.5246 12.479 20.7983 12.479C19.0721 12.479 17.6786 13.8725 17.6786 15.5987Z" fill="#97999D"/>
<path d="M15.9452 38.8235L7.97253 32.2374L18.7183 28.0777L30.1574 30.5042L32.2372 34.3172L26.691 38.8235H15.9452Z" fill="#97999D"/>
<ellipse cx="20.798" cy="15.9454" rx="4.15966" ry="4.85294" fill="#97999D"/>
</svg>
