<svg width="37" height="36" viewBox="0 0 37 36" fill="none" xmlns="http://www.w3.org/2000/svg">
<path fill-rule="evenodd" clip-rule="evenodd" d="M18.3259 0.012001C8.49922 0.012001 0.523926 7.9873 0.523926 17.814C0.523926 27.6407 8.49922 35.616 18.3259 35.616C28.1526 35.616 36.1279 27.6407 36.1279 17.814C36.1279 7.9873 28.1526 0.012001 18.3259 0.012001ZM9.54954 28.9937C10.315 27.3915 14.9791 25.8249 18.3259 25.8249C21.6727 25.8249 26.3546 27.3915 27.1023 28.9937C24.6812 30.9163 21.6371 32.0556 18.3259 32.0556C15.0148 32.0556 11.9706 30.9163 9.54954 28.9937ZM18.3259 22.2645C20.925 22.2645 27.1023 23.3148 29.648 26.4124C31.4638 24.0269 32.5675 21.054 32.5675 17.814C32.5675 9.96332 26.1766 3.5724 18.3259 3.5724C10.4752 3.5724 4.08433 9.96332 4.08433 17.814C4.08433 21.054 5.18805 24.0269 7.00385 26.4124C9.54954 23.3148 15.7268 22.2645 18.3259 22.2645ZM18.3259 7.1328C14.8723 7.1328 12.0952 9.90991 12.0952 13.3635C12.0952 16.8171 14.8723 19.5942 18.3259 19.5942C21.7795 19.5942 24.5566 16.8171 24.5566 13.3635C24.5566 9.90991 21.7795 7.1328 18.3259 7.1328ZM15.6556 13.3635C15.6556 14.8411 16.8484 16.0338 18.3259 16.0338C19.8035 16.0338 20.9962 14.8411 20.9962 13.3635C20.9962 11.8859 19.8035 10.6932 18.3259 10.6932C16.8484 10.6932 15.6556 11.8859 15.6556 13.3635Z" fill="white"/>
<path d="M14.1722 33.2423L7.34814 27.605L16.5458 24.0446L26.3369 26.1215L28.1171 29.3852L23.3699 33.2423H14.1722Z" fill="white"/>
<ellipse cx="18.3258" cy="13.6601" rx="3.5604" ry="4.1538" fill="white"/>
</svg>
